<?xml version="1.0" encoding="UTF-8"?><svg id="Calque_2" xmlns="http://www.w3.org/2000/svg" viewBox="0 0 4395.89 861.47"><defs><style>.cls-1{fill:#0f23aa;fill-rule:evenodd;}</style></defs><g id="Calque_1-2"><path class="cls-1" d="m455.69,0C198.49,0,0,174.79,0,430.73s198.49,430.74,455.69,430.74,455.69-174.79,455.69-430.74S712.88,0,455.69,0Zm0,639.22c-121.12,0-199.75-92.4-199.75-208.49s78.63-208.48,199.75-208.48,199.75,92.39,199.75,208.48-78.63,208.49-199.75,208.49ZM4147.18,13.76l-101.31,274.92-101.35-274.92h-248.57l225.63,612-81.39,220.68h249.6L4395.89,13.76h-248.71Zm-3208.34-.06h252.17v613.07h315.9v219.67h-568.07V13.7Zm1051.15,0h-444.44v832.74h252.17v-262.16h192.27c194.78,0,299.62-129.85,299.62-284.66S2184.77,13.7,1989.99,13.7Zm-32.43,350.84h-159.84v-131.11h159.84c42.43,0,76.18,21.24,76.18,66.18s-33.69,64.93-76.18,64.93Zm920.11,478.44L3183.51,13.7h317.09l307.23,832.74h-285.9l-29.98-97.36h-299.63l-29.98,97.36h-852.67V13.7h252.17v613.01h315.83v216.28Zm464.42-582.08l-82.4,268.44h164.8l-82.4-268.44Z"/></g></svg>